<svg width="46" height="65" viewBox="0 0 46 65" fill="none" xmlns="http://www.w3.org/2000/svg">
<path d="M11.8157 54.4729C9.75115 56.2654 9.24338 58.5712 10.0245 60.6706C10.828 62.8299 12.6749 64.123 15.409 64.13L45.2215 64.2362L43.7485 60.2774L15.0965 60.3539C14.3474 60.3595 13.7713 60.0959 13.5035 59.3761C13.258 58.7163 13.4993 58.0802 14.0699 57.5948L37.7848 36.3468L34.8642 34.2326L11.8157 54.4729Z" fill="white"/>
<path d="M1.80957 29.8373C4.30926 36.5553 9.87783 41.2437 16.5791 42.3695L17.278 38.5585C11.8349 37.5109 7.41022 33.6943 5.42386 28.3559C2.14301 19.5385 6.98488 9.61076 16.5821 6.03978C26.0593 2.51342 36.2353 6.92147 39.4938 15.6789C41.4802 21.0173 40.5665 26.8202 37.1321 31.171L40.1521 33.5982C44.4876 28.3658 45.6971 21.1554 43.1974 14.4374C39.113 3.46065 26.5656 -2.18192 15.109 2.08094C3.53243 6.38845 -2.27474 18.8605 1.80957 29.8373Z" fill="white"/>
</svg>
